<?xml version="1.0" encoding="iso-8859-1"?>
<!-- Uploaded to: SVG Repo, www.svgrepo.com, Generator: SVG Repo Mixer Tools -->
<!DOCTYPE svg PUBLIC "-//W3C//DTD SVG 1.1//EN" "http://www.w3.org/Graphics/SVG/1.1/DTD/svg11.dtd">
<svg fill="#000000" version="1.1" id="Capa_1" xmlns="http://www.w3.org/2000/svg" xmlns:xlink="http://www.w3.org/1999/xlink" 
	 width="800px" height="800px" viewBox="0 0 87.375 87.375"
	 xml:space="preserve">
<g>
	<g>
		<polygon points="73.699,28.113 73.699,37.503 53.84,11.683 39.953,27.962 12.228,0 8.676,3.519 40.229,35.343 53.639,19.623 
			69.524,40.279 62.162,37.484 60.385,42.158 78.699,49.111 78.699,28.113 		"/>
		<path d="M59.522,47.708h-6.513c-1.104,0-2,0.896-2,2v35.666c0,1.104,0.896,2,2,2h6.513c1.105,0,2-0.896,2-2V49.708
			C61.522,48.604,60.627,47.708,59.522,47.708z"/>
		<path d="M38.191,57.708h-6.513c-1.104,0-2,0.896-2,2v25.666c0,1.104,0.896,2,2,2h6.513c1.105,0,2-0.896,2-2V59.708
			C40.191,58.604,39.296,57.708,38.191,57.708z"/>
		<path d="M17.189,28.041h-6.513c-1.104,0-2,0.896-2,2v55.334c0,1.104,0.896,2,2,2h6.513c1.105,0,2-0.896,2-2V30.041
			C19.189,28.937,18.294,28.041,17.189,28.041z"/>
	</g>
</g>
</svg>